<svg version="1.1" xmlns="http://www.w3.org/2000/svg" xmlns:xlink="http://www.w3.org/1999/xlink" width="16" height="16" viewBox="0,0,256,256"><g fill="#ffffff" fill-rule="nonzero" stroke="none" stroke-width="1" stroke-linecap="butt" stroke-linejoin="miter" stroke-miterlimit="10" stroke-dasharray="" stroke-dashoffset="0" font-family="none" font-weight="none" font-size="none" text-anchor="none" style="mix-blend-mode: normal"><g transform="scale(16,16)"><path d="M6,1v3h-5v-3zM1,0c-0.55228,0 -1,0.44772 -1,1v3c0,0.55228 0.44772,1 1,1h5c0.55228,0 1,-0.44772 1,-1v-3c0,-0.55228 -0.44772,-1 -1,-1zM15,12v3h-5v-3zM10,11c-0.55228,0 -1,0.44772 -1,1v3c0,0.55228 0.44772,1 1,1h5c0.55228,0 1,-0.44772 1,-1v-3c0,-0.55228 -0.44772,-1 -1,-1zM6,8v7h-5v-7zM1,7c-0.55228,0 -1,0.44772 -1,1v7c0,0.55228 0.44772,1 1,1h5c0.55228,0 1,-0.44772 1,-1v-7c0,-0.55228 -0.44772,-1 -1,-1zM15,1v7h-5v-7zM10,0c-0.55228,0 -1,0.44772 -1,1v7c0,0.55228 0.44772,1 1,1h5c0.55228,0 1,-0.44772 1,-1v-7c0,-0.55228 -0.44772,-1 -1,-1z"></path></g></g></svg>