<?xml version="1.0" standalone="no"?>
<!DOCTYPE svg PUBLIC "-//W3C//DTD SVG 20010904//EN"
 "http://www.w3.org/TR/2001/REC-SVG-20010904/DTD/svg10.dtd">
<svg version="1.0" xmlns="http://www.w3.org/2000/svg"
 width="1920.000000pt" height="1080.000000pt" viewBox="0 0 1920.000000 1080.000000"
 preserveAspectRatio="xMidYMid meet">

<g transform="translate(0.000000,1080.000000) scale(0.100000,-0.100000)"
fill="#000000" stroke="none">
<path d="M2244 6706 c-17 -8 -34 -21 -37 -29 -3 -8 -8 -410 -12 -893 -7 -864
-6 -881 14 -998 58 -330 225 -582 496 -746 83 -51 130 -72 250 -113 86 -29 99
-31 282 -35 184 -4 195 -3 285 23 199 57 415 191 528 327 138 166 219 348 245
553 8 66 13 140 10 165 -2 25 -10 92 -16 150 -24 217 -139 433 -322 607 -110
104 -259 186 -447 245 -68 21 -93 23 -273 23 l-199 0 -24 -28 -24 -28 2 -316
3 -316 28 -20 c26 -20 31 -20 85 -8 100 24 157 25 230 2 93 -28 154 -71 202
-143 l40 -60 0 -125 c0 -144 -9 -170 -87 -247 -76 -75 -131 -99 -238 -104 -75
-3 -98 0 -138 17 -103 45 -160 110 -197 226 l-21 70 7 856 c7 944 9 920 -52
945 -47 20 -574 20 -620 0z"/>
<path d="M5915 6686 c-20 -14 -20 -32 -21 -873 -1 -904 -3 -951 -47 -1038 -31
-61 -118 -140 -184 -166 -87 -35 -217 -34 -296 3 -77 36 -160 116 -197 191
-27 54 -30 69 -30 156 0 85 3 103 29 156 44 94 140 174 249 210 53 17 155 17
268 -1 41 -6 41 -5 46 28 8 61 3 573 -6 591 -13 27 -49 32 -211 31 -120 0
-166 -5 -231 -22 -203 -54 -359 -138 -480 -257 -159 -158 -240 -299 -289 -510
-4 -16 -7 -115 -6 -218 0 -174 2 -196 27 -279 34 -116 55 -164 120 -268 88
-143 151 -210 268 -288 107 -72 229 -136 282 -147 16 -4 47 -14 69 -23 29 -11
87 -17 211 -20 160 -4 177 -3 274 23 305 78 548 272 680 540 96 196 91 129
102 1197 8 773 7 942 -4 965 l-13 28 -296 3 c-243 2 -298 0 -314 -12z"/>
<path d="M8692 6029 c-117 -59 -134 -225 -29 -290 59 -36 98 -41 158 -21 47
16 57 24 77 62 42 84 18 186 -56 235 -56 37 -98 41 -150 14z"/>
<path d="M7366 6004 c-14 -14 -16 -73 -16 -498 0 -529 -1 -515 63 -642 124
-245 477 -340 725 -195 90 52 150 118 196 216 95 199 62 439 -84 598 -87 95
-265 164 -398 154 -35 -3 -69 -10 -75 -16 -8 -8 -12 -57 -12 -142 0 -151 5
-160 79 -152 85 10 177 -40 217 -117 18 -35 16 -138 -3 -175 -20 -38 -73 -88
-115 -109 -91 -46 -204 6 -262 121 -20 41 -21 54 -21 488 0 289 -4 453 -10
466 -10 17 -22 19 -140 19 -104 0 -132 -3 -144 -16z"/>
<path d="M9212 6013 c-13 -2 -27 -16 -33 -29 -12 -34 -12 -1334 1 -1354 7 -12
38 -16 147 -18 122 -3 139 -2 150 14 10 13 13 72 13 230 0 199 1 213 21 238
44 56 137 21 215 -81 41 -54 54 -116 54 -256 0 -62 5 -119 10 -127 7 -12 36
-15 152 -15 l143 0 3 139 c4 222 -21 309 -123 429 -83 97 -83 111 -10 188 31
32 65 80 77 106 21 48 29 115 15 130 -11 10 -197 17 -242 9 -29 -6 -35 -13
-56 -67 -28 -77 -59 -113 -120 -144 -61 -32 -103 -32 -123 -3 -14 19 -16 65
-16 298 0 218 -3 280 -14 295 -11 16 -29 19 -127 21 -63 1 -124 0 -137 -3z"/>
<path d="M12778 6003 c-20 -2 -41 -10 -47 -16 -6 -8 -11 -183 -13 -484 l-3
-471 -30 -44 c-61 -86 -172 -120 -254 -78 -50 25 -109 94 -117 137 -27 143 73
257 224 258 51 0 65 4 74 18 5 10 8 71 6 143 -4 158 -4 158 -133 151 -177 -10
-321 -89 -414 -227 -59 -88 -73 -132 -78 -255 -6 -123 10 -189 70 -295 101
-178 326 -284 534 -252 184 29 315 128 406 307 27 54 31 74 39 197 5 76 7 304
6 507 -3 337 -5 372 -21 388 -13 14 -37 18 -115 19 -53 1 -114 0 -134 -3z"/>
<path d="M10688 5619 c-214 -31 -376 -193 -414 -413 -21 -118 -7 -205 51 -323
55 -112 107 -166 213 -221 164 -85 389 -98 559 -31 62 25 71 48 48 129 -9 30
-22 80 -29 111 -21 93 -20 93 -129 49 -88 -35 -116 -37 -148 -11 -18 15 -21
23 -14 39 6 11 92 107 192 212 101 105 186 202 189 216 15 61 -49 131 -179
193 -117 56 -208 69 -339 50z m146 -315 c9 -8 16 -24 16 -35 0 -10 -43 -66
-96 -124 -77 -83 -102 -105 -123 -105 -15 0 -32 5 -39 12 -16 16 -15 101 2
141 15 36 66 87 111 110 39 21 109 22 129 1z"/>
<path d="M8634 5610 c-13 -5 -24 -21 -28 -40 -3 -18 -6 -234 -6 -480 0 -404 2
-449 17 -461 19 -16 250 -25 272 -11 16 12 16 8 13 539 -2 377 -4 434 -18 447
-12 13 -38 16 -122 15 -59 0 -116 -4 -128 -9z"/>
<path d="M11715 5606 c-103 -33 -196 -99 -245 -175 -16 -27 -41 -85 -55 -131
-24 -81 -25 -94 -25 -370 0 -231 3 -290 14 -306 13 -17 30 -19 145 -23 87 -2
136 1 145 8 10 9 15 78 21 304 5 199 11 302 20 322 18 44 59 77 102 84 l38 6
3 135 c2 118 0 136 -15 147 -21 16 -96 16 -148 -1z"/>
<path d="M13621 5604 c-77 -20 -189 -82 -237 -130 -47 -47 -104 -145 -129
-223 -26 -81 -24 -218 4 -302 25 -77 78 -170 124 -217 39 -41 147 -105 212
-127 68 -23 197 -30 281 -16 200 35 374 211 405 412 23 151 -10 288 -102 420
-108 153 -361 236 -558 183z m235 -331 c22 -11 54 -39 72 -62 28 -38 32 -50
32 -107 0 -76 -14 -107 -68 -156 -57 -51 -122 -74 -171 -60 -119 36 -194 156
-161 257 16 49 75 113 125 137 49 23 117 20 171 -9z"/>
<path d="M14862 5609 c-110 -18 -224 -81 -283 -155 -45 -57 -59 -88 -86 -188
-21 -84 -23 -109 -23 -363 0 -339 -14 -313 169 -313 91 0 131 4 138 13 6 7 13
132 16 294 6 307 8 317 67 366 64 54 152 39 195 -34 18 -31 20 -55 23 -309 1
-151 4 -285 7 -297 4 -15 17 -25 43 -32 47 -14 217 -14 241 -1 17 9 19 34 26
287 8 293 12 322 58 372 69 74 182 51 223 -46 11 -25 14 -96 14 -306 0 -220 3
-277 14 -293 13 -17 29 -19 139 -22 106 -3 126 -1 141 14 16 15 17 46 14 348
l-3 331 -37 77 c-51 107 -103 160 -207 211 l-86 42 -130 0 c-126 0 -132 -1
-199 -32 -82 -40 -121 -41 -186 -8 -50 25 -172 56 -213 54 -12 -1 -46 -5 -75
-10z"/>
<path d="M16250 5593 c-33 -12 -40 -36 -40 -145 0 -146 2 -148 149 -148 214 0
216 -12 50 -305 -210 -370 -221 -397 -176 -409 12 -3 202 -6 423 -6 298 0 403
3 412 12 8 8 12 50 12 125 0 156 4 153 -183 153 -127 0 -146 2 -160 18 -27 29
-21 55 36 154 29 51 77 138 107 193 29 55 80 146 112 203 35 61 58 112 56 125
-3 20 -11 23 -73 28 -86 8 -704 9 -725 2z"/>
</g>
</svg>
